<svg width="15" height="18" viewBox="0 0 15 18" fill="none" xmlns="http://www.w3.org/2000/svg">
<path d="M6.1 13.1666V2.2333C6.1 1.85552 6.228 1.53907 6.484 1.28396C6.74 1.02885 7.05644 0.900852 7.43333 0.899963C7.81111 0.899963 8.128 1.02796 8.384 1.28396C8.64 1.53996 8.76756 1.85641 8.76667 2.2333V13.1666L12.6333 9.29996C12.8778 9.05552 13.1889 8.9333 13.5667 8.9333C13.9444 8.9333 14.2556 9.05552 14.5 9.29996C14.7444 9.54441 14.8667 9.85552 14.8667 10.2333C14.8667 10.6111 14.7444 10.9222 14.5 11.1666L8.36667 17.3C8.1 17.5666 7.78889 17.7 7.43333 17.7C7.07778 17.7 6.76667 17.5666 6.5 17.3L0.366666 11.1666C0.122222 10.9222 0 10.6111 0 10.2333C0 9.85552 0.122222 9.54441 0.366666 9.29996C0.611111 9.05552 0.922222 8.9333 1.3 8.9333C1.67778 8.9333 1.98889 9.05552 2.23333 9.29996L6.1 13.1666Z" fill="#666D80"/>
</svg>
